# xmcd
# Copyright (C) 1995-1998 Ti Kan
#
# Track frame offsets:
#       150
#       12540
#       22817
#       36915
#       49472
#       62530
#       76052
#       87752
#       98672
#       107532
#       121150
#       131277
#       143612
#       156705
#       170190
#       182432
#       193962
#       204667
#       215407
#       227907
#       240157
#
# Disc length: 3363 seconds
#
# Revision: 0
# Processed by: cddbd v1.5.2PL0 Copyright (c) Steve Scherf et al.
# Submitted via: CD-Transfer v1.0
#
DISCID=170d2115
DTITLE=Martin, Dean - 
DYEAR=1900
DGENRE=
TTITLE0=Gentle On My Mind
TTITLE1=Memories Are Made Of This
TTITLE2=That's Amore
TTITLE3=Little Ole Wine Drinker, Me
TTITLE4=Door Is Still Open, The
TTITLE5=Volare (Nei Blu Di Pinto Di Blue)
TTITLE6=In The Chapel In The Moonlight
TTITLE7=Ain't That A Kick In The Head
TTITLE8=You're Nobody 'til Somebody Loves You
TTITLE9=Let Me Go Lover
TTITLE10=Somewhere There's A Someone
TTITLE11=Return To Me
TTITLE12=Naughty Lady Of Shady Lane, The
TTITLE13=Rio Bravo
TTITLE14=Sway
TTITLE15=Powder Your Face With Sunshine (Smile, Smile, Smile)
TTITLE16=I Will
TTITLE17=Kiss
TTITLE18=Under The Brides Of Paris
TTITLE19=Houston
TTITLE20=Everybody Loves Somebody
EXTD=
EXTT0=
EXTT1=
EXTT2=
EXTT3=
EXTT4=
EXTT5=
EXTT6=
EXTT7=
EXTT8=
EXTT9=
EXTT10=
EXTT11=
EXTT12=
EXTT13=
EXTT14=
EXTT15=
EXTT16=
EXTT17=
EXTT18=
EXTT19=
EXTT20=
PLAYORDER=
